<svg xmlns="http://www.w3.org/2000/svg" viewBox="0 0 512 512" role="img" aria-label="Asterlane app icon">
  <rect width="512" height="512" rx="96" fill="#8D5F68"/>
  <g>
    <path d="M 64 18.16 C 66.27 52.37 68.08 66.89 86.68 70 C 68.08 73.11 66.27 87.63 64 121.84 C 61.73 87.63 59.92 73.11 41.32 70 C 59.92 66.89 61.73 52.37 64 18.16 Z" transform="rotate(-4.58 64 70)" fill="#F7F0E6" fill-opacity="0.16"/>
    <path d="M 126 34.34 C 129.24 80.32 131.83 99.82 158.4 104 C 131.83 108.18 129.24 127.68 126 173.66 C 122.76 127.68 120.17 108.18 93.6 104 C 120.17 99.82 122.76 80.32 126 34.34 Z" transform="rotate(1.15 126 104)" fill="#F7F0E6" fill-opacity="0.18"/>
    <path d="M 444 23.68 C 446.75 62.17 448.96 78.5 471.54 82 C 448.96 85.5 446.75 101.83 444 140.32 C 441.25 101.83 439.04 85.5 416.46 82 C 439.04 78.5 441.25 62.17 444 23.68 Z" transform="rotate(2.29 444 82)" fill="#F7F0E6" fill-opacity="0.17"/>
    <path d="M 54 162.26 C 55.94 191.13 57.5 203.38 73.44 206 C 57.5 208.62 55.94 220.87 54 249.74 C 52.06 220.87 50.5 208.62 34.56 206 C 50.5 203.38 52.06 191.13 54 162.26 Z" transform="rotate(1.72 54 206)" fill="#F7F0E6" fill-opacity="0.13"/>
    <path d="M 458 168.64 C 459.94 198.58 461.5 211.28 477.44 214 C 461.5 216.72 459.94 229.42 458 259.36 C 456.06 229.42 454.5 216.72 438.56 214 C 454.5 211.28 456.06 198.58 458 168.64 Z" transform="rotate(-2.86 458 214)" fill="#F7F0E6" fill-opacity="0.14"/>
    <path d="M 72 306.64 C 73.94 336.58 75.5 349.28 91.44 352 C 75.5 354.72 73.94 367.42 72 397.36 C 70.06 367.42 68.5 354.72 52.56 352 C 68.5 349.28 70.06 336.58 72 306.64 Z" transform="rotate(-3.44 72 352)" fill="#F7F0E6" fill-opacity="0.13"/>
    <path d="M 178 378.16 C 180.27 412.37 182.08 426.89 200.68 430 C 182.08 433.11 180.27 447.63 178 481.84 C 175.73 447.63 173.92 433.11 155.32 430 C 173.92 426.89 175.73 412.37 178 378.16 Z" transform="rotate(1.15 178 430)" fill="#F7F0E6" fill-opacity="0.15"/>
    <path d="M 320 399.12 C 321.62 424.78 322.92 435.67 336.2 438 C 322.92 440.33 321.62 451.22 320 476.88 C 318.38 451.22 317.08 440.33 303.8 438 C 317.08 435.67 318.38 424.78 320 399.12 Z" transform="rotate(-1.15 320 438)" fill="#F7F0E6" fill-opacity="0.12"/>
    <path d="M 448 339.02 C 449.94 370.03 451.5 383.18 467.44 386 C 451.5 388.82 449.94 401.97 448 432.98 C 446.06 401.97 444.5 388.82 428.56 386 C 444.5 383.18 446.06 370.03 448 339.02 Z" transform="rotate(2.29 448 386)" fill="#F7F0E6" fill-opacity="0.14"/>
    <path d="M 462 419.12 C 463.62 444.78 464.92 455.67 478.2 458 C 464.92 460.33 463.62 471.22 462 496.88 C 460.38 471.22 459.08 460.33 445.8 458 C 459.08 455.67 460.38 444.78 462 419.12 Z" transform="rotate(-4.58 462 458)" fill="#F7F0E6" fill-opacity="0.12"/>
    <g>
      <ellipse cx="280.76" cy="261.43" rx="28.16" ry="17" transform="rotate(22.5 280.76 261.43)" fill="#F7F0E6" fill-opacity="0.95"/>
      <ellipse cx="267.43" cy="274.76" rx="28.16" ry="17" transform="rotate(67.5 267.43 274.76)" fill="#F7F0E6" fill-opacity="0.95"/>
      <ellipse cx="248.57" cy="274.76" rx="28.16" ry="17" transform="rotate(112.5 248.57 274.76)" fill="#F7F0E6" fill-opacity="0.95"/>
      <ellipse cx="235.24" cy="261.43" rx="28.16" ry="17" transform="rotate(157.5 235.24 261.43)" fill="#F7F0E6" fill-opacity="0.95"/>
      <ellipse cx="235.24" cy="242.57" rx="28.16" ry="17" transform="rotate(202.5 235.24 242.57)" fill="#F7F0E6" fill-opacity="0.95"/>
      <ellipse cx="248.57" cy="229.24" rx="28.16" ry="17" transform="rotate(247.5 248.57 229.24)" fill="#F7F0E6" fill-opacity="0.95"/>
      <ellipse cx="267.43" cy="229.24" rx="28.16" ry="17" transform="rotate(292.5 267.43 229.24)" fill="#F7F0E6" fill-opacity="0.95"/>
      <ellipse cx="280.76" cy="242.57" rx="28.16" ry="17" transform="rotate(337.5 280.76 242.57)" fill="#F7F0E6" fill-opacity="0.95"/>
      <circle cx="258" cy="252" r="14.96" fill="#E8D0D2"/>
      <circle cx="258" cy="252" r="6.8" fill="#8D5F68" fill-opacity="0.32"/>
    </g>
    <g>
      <ellipse cx="155.64" cy="188.72" rx="15.36" ry="10" transform="rotate(30 155.64 188.72)" fill="#FFF9F0" fill-opacity="0.82"/>
      <ellipse cx="144" cy="195.44" rx="15.36" ry="10" transform="rotate(90 144 195.44)" fill="#FFF9F0" fill-opacity="0.82"/>
      <ellipse cx="132.36" cy="188.72" rx="15.36" ry="10" transform="rotate(150 132.36 188.72)" fill="#FFF9F0" fill-opacity="0.82"/>
      <ellipse cx="132.36" cy="175.28" rx="15.36" ry="10" transform="rotate(210 132.36 175.28)" fill="#FFF9F0" fill-opacity="0.82"/>
      <ellipse cx="144" cy="168.56" rx="15.36" ry="10" transform="rotate(270 144 168.56)" fill="#FFF9F0" fill-opacity="0.82"/>
      <ellipse cx="155.64" cy="175.28" rx="15.36" ry="10" transform="rotate(330 155.64 175.28)" fill="#FFF9F0" fill-opacity="0.82"/>
      <circle cx="144" cy="182" r="8.8" fill="#C7959D"/>
      <circle cx="144" cy="182" r="4" fill="#8D5F68" fill-opacity="0.32"/>
    </g>
    <g>
      <ellipse cx="378.16" cy="188.67" rx="14.08" ry="9" transform="rotate(60 378.16 188.67)" fill="#F7F0E6" fill-opacity="0.78"/>
      <ellipse cx="365.84" cy="188.67" rx="14.08" ry="9" transform="rotate(120 365.84 188.67)" fill="#F7F0E6" fill-opacity="0.78"/>
      <ellipse cx="359.68" cy="178" rx="14.08" ry="9" transform="rotate(180 359.68 178)" fill="#F7F0E6" fill-opacity="0.78"/>
      <ellipse cx="365.84" cy="167.33" rx="14.08" ry="9" transform="rotate(240 365.84 167.33)" fill="#F7F0E6" fill-opacity="0.78"/>
      <ellipse cx="378.16" cy="167.33" rx="14.08" ry="9" transform="rotate(300 378.16 167.33)" fill="#F7F0E6" fill-opacity="0.78"/>
      <ellipse cx="384.32" cy="178" rx="14.08" ry="9" transform="rotate(360 384.32 178)" fill="#F7F0E6" fill-opacity="0.78"/>
      <circle cx="372" cy="178" r="7.92" fill="#E8D0D2"/>
      <circle cx="372" cy="178" r="3.6" fill="#8D5F68" fill-opacity="0.32"/>
    </g>
    <g>
      <ellipse cx="141.12" cy="340" rx="17.28" ry="10.5" transform="rotate(0 141.12 340)" fill="#F7F0E6" fill-opacity="0.84"/>
      <ellipse cx="135.43" cy="351.82" rx="17.28" ry="10.5" transform="rotate(51.43 135.43 351.82)" fill="#F7F0E6" fill-opacity="0.84"/>
      <ellipse cx="122.64" cy="354.74" rx="17.28" ry="10.5" transform="rotate(102.86 122.64 354.74)" fill="#F7F0E6" fill-opacity="0.84"/>
      <ellipse cx="112.38" cy="346.56" rx="17.28" ry="10.5" transform="rotate(154.29 112.38 346.56)" fill="#F7F0E6" fill-opacity="0.84"/>
      <ellipse cx="112.38" cy="333.44" rx="17.28" ry="10.5" transform="rotate(205.71 112.38 333.44)" fill="#F7F0E6" fill-opacity="0.84"/>
      <ellipse cx="122.64" cy="325.26" rx="17.28" ry="10.5" transform="rotate(257.14 122.64 325.26)" fill="#F7F0E6" fill-opacity="0.84"/>
      <ellipse cx="135.43" cy="328.18" rx="17.28" ry="10.5" transform="rotate(308.57 135.43 328.18)" fill="#F7F0E6" fill-opacity="0.84"/>
      <circle cx="126" cy="340" r="9.24" fill="#C7959D"/>
      <circle cx="126" cy="340" r="4.2" fill="#8D5F68" fill-opacity="0.32"/>
    </g>
    <g>
      <ellipse cx="403.14" cy="349.29" rx="19.2" ry="12" transform="rotate(25.71 403.14 349.29)" fill="#FFF9F0" fill-opacity="0.84"/>
      <ellipse cx="391.74" cy="358.38" rx="19.2" ry="12" transform="rotate(77.14 391.74 358.38)" fill="#FFF9F0" fill-opacity="0.84"/>
      <ellipse cx="377.53" cy="355.13" rx="19.2" ry="12" transform="rotate(128.57 377.53 355.13)" fill="#FFF9F0" fill-opacity="0.84"/>
      <ellipse cx="371.2" cy="342" rx="19.2" ry="12" transform="rotate(180 371.2 342)" fill="#FFF9F0" fill-opacity="0.84"/>
      <ellipse cx="377.53" cy="328.87" rx="19.2" ry="12" transform="rotate(231.43 377.53 328.87)" fill="#FFF9F0" fill-opacity="0.84"/>
      <ellipse cx="391.74" cy="325.62" rx="19.2" ry="12" transform="rotate(282.86 391.74 325.62)" fill="#FFF9F0" fill-opacity="0.84"/>
      <ellipse cx="403.14" cy="334.71" rx="19.2" ry="12" transform="rotate(334.29 403.14 334.71)" fill="#FFF9F0" fill-opacity="0.84"/>
      <circle cx="388" cy="342" r="10.56" fill="#E8D0D2"/>
      <circle cx="388" cy="342" r="4.8" fill="#8D5F68" fill-opacity="0.32"/>
    </g>
    <g>
      <ellipse cx="79.7" cy="137.6" rx="10.88" ry="7" transform="rotate(36 79.7 137.6)" fill="#E8D0D2" fill-opacity="0.72"/>
      <ellipse cx="71" cy="141.47" rx="10.88" ry="7" transform="rotate(96 71 141.47)" fill="#E8D0D2" fill-opacity="0.72"/>
      <ellipse cx="63.3" cy="135.87" rx="10.88" ry="7" transform="rotate(156 63.3 135.87)" fill="#E8D0D2" fill-opacity="0.72"/>
      <ellipse cx="64.3" cy="126.4" rx="10.88" ry="7" transform="rotate(216 64.3 126.4)" fill="#E8D0D2" fill-opacity="0.72"/>
      <ellipse cx="73" cy="122.53" rx="10.88" ry="7" transform="rotate(276 73 122.53)" fill="#E8D0D2" fill-opacity="0.72"/>
      <ellipse cx="80.7" cy="128.13" rx="10.88" ry="7" transform="rotate(336 80.7 128.13)" fill="#E8D0D2" fill-opacity="0.72"/>
      <circle cx="72" cy="132" r="6.16" fill="#F7F0E6"/>
      <circle cx="72" cy="132" r="2.8" fill="#8D5F68" fill-opacity="0.32"/>
    </g>
    <g>
      <ellipse cx="449.31" cy="153.86" rx="11.52" ry="7.5" transform="rotate(22.5 449.31 153.86)" fill="#FFF9F0" fill-opacity="0.72"/>
      <ellipse cx="441.32" cy="159.99" rx="11.52" ry="7.5" transform="rotate(82.5 441.32 159.99)" fill="#FFF9F0" fill-opacity="0.72"/>
      <ellipse cx="432" cy="156.14" rx="11.52" ry="7.5" transform="rotate(142.5 432 156.14)" fill="#FFF9F0" fill-opacity="0.72"/>
      <ellipse cx="430.69" cy="146.14" rx="11.52" ry="7.5" transform="rotate(202.5 430.69 146.14)" fill="#FFF9F0" fill-opacity="0.72"/>
      <ellipse cx="438.68" cy="140.01" rx="11.52" ry="7.5" transform="rotate(262.5 438.68 140.01)" fill="#FFF9F0" fill-opacity="0.72"/>
      <ellipse cx="448" cy="143.86" rx="11.52" ry="7.5" transform="rotate(322.5 448 143.86)" fill="#FFF9F0" fill-opacity="0.72"/>
      <circle cx="440" cy="150" r="6.6" fill="#E8D0D2"/>
      <circle cx="440" cy="150" r="3" fill="#8D5F68" fill-opacity="0.32"/>
    </g>
    <g>
      <ellipse cx="67.8" cy="432" rx="11.2" ry="7" transform="rotate(0 67.8 432)" fill="#FFF9F0" fill-opacity="0.70"/>
      <ellipse cx="62.9" cy="440.49" rx="11.2" ry="7" transform="rotate(60 62.9 440.49)" fill="#FFF9F0" fill-opacity="0.70"/>
      <ellipse cx="53.1" cy="440.49" rx="11.2" ry="7" transform="rotate(120 53.1 440.49)" fill="#FFF9F0" fill-opacity="0.70"/>
      <ellipse cx="48.2" cy="432" rx="11.2" ry="7" transform="rotate(180 48.2 432)" fill="#FFF9F0" fill-opacity="0.70"/>
      <ellipse cx="53.1" cy="423.51" rx="11.2" ry="7" transform="rotate(240 53.1 423.51)" fill="#FFF9F0" fill-opacity="0.70"/>
      <ellipse cx="62.9" cy="423.51" rx="11.2" ry="7" transform="rotate(300 62.9 423.51)" fill="#FFF9F0" fill-opacity="0.70"/>
      <circle cx="58" cy="432" r="6.16" fill="#E8D0D2"/>
      <circle cx="58" cy="432" r="2.8" fill="#8D5F68" fill-opacity="0.32"/>
    </g>
    <g>
      <ellipse cx="432.73" cy="443.04" rx="11.52" ry="7.5" transform="rotate(30 432.73 443.04)" fill="#E8D0D2" fill-opacity="0.72"/>
      <ellipse cx="424" cy="448.08" rx="11.52" ry="7.5" transform="rotate(90 424 448.08)" fill="#E8D0D2" fill-opacity="0.72"/>
      <ellipse cx="415.27" cy="443.04" rx="11.52" ry="7.5" transform="rotate(150 415.27 443.04)" fill="#E8D0D2" fill-opacity="0.72"/>
      <ellipse cx="415.27" cy="432.96" rx="11.52" ry="7.5" transform="rotate(210 415.27 432.96)" fill="#E8D0D2" fill-opacity="0.72"/>
      <ellipse cx="424" cy="427.92" rx="11.52" ry="7.5" transform="rotate(270 424 427.92)" fill="#E8D0D2" fill-opacity="0.72"/>
      <ellipse cx="432.73" cy="432.96" rx="11.52" ry="7.5" transform="rotate(330 432.73 432.96)" fill="#E8D0D2" fill-opacity="0.72"/>
      <circle cx="424" cy="438" r="6.6" fill="#F7F0E6"/>
      <circle cx="424" cy="438" r="3" fill="#8D5F68" fill-opacity="0.32"/>
    </g>
    <path d="M 64 38 C 65.4 59.12 66.52 68.08 78 70 C 66.52 71.92 65.4 80.88 64 102 C 62.6 80.88 61.48 71.92 50 70 C 61.48 68.08 62.6 59.12 64 38 Z" transform="rotate(-4.58 64 70)" fill="#F7F0E6" fill-opacity="0.90"/>
    <path d="M 126 61 C 128 89.38 129.6 101.42 146 104 C 129.6 106.58 128 118.62 126 147 C 124 118.62 122.4 106.58 106 104 C 122.4 101.42 124 89.38 126 61 Z" transform="rotate(1.15 126 104)" fill="#F7F0E6" fill-opacity="0.97"/>
    <path d="M 444 46 C 445.7 69.76 447.06 79.84 461 82 C 447.06 84.16 445.7 94.24 444 118 C 442.3 94.24 440.94 84.16 427 82 C 440.94 79.84 442.3 69.76 444 46 Z" transform="rotate(2.29 444 82)" fill="#F7F0E6" fill-opacity="0.94"/>
    <path d="M 54 179 C 55.2 196.82 56.16 204.38 66 206 C 56.16 207.62 55.2 215.18 54 233 C 52.8 215.18 51.84 207.62 42 206 C 51.84 204.38 52.8 196.82 54 179 Z" transform="rotate(1.72 54 206)" fill="#F7F0E6" fill-opacity="0.85"/>
    <path d="M 458 186 C 459.2 204.48 460.16 212.32 470 214 C 460.16 215.68 459.2 223.52 458 242 C 456.8 223.52 455.84 215.68 446 214 C 455.84 212.32 456.8 204.48 458 186 Z" transform="rotate(-2.86 458 214)" fill="#F7F0E6" fill-opacity="0.88"/>
    <path d="M 72 324 C 73.2 342.48 74.16 350.32 84 352 C 74.16 353.68 73.2 361.52 72 380 C 70.8 361.52 69.84 353.68 60 352 C 69.84 350.32 70.8 342.48 72 324 Z" transform="rotate(-3.44 72 352)" fill="#F7F0E6" fill-opacity="0.88"/>
    <path d="M 178 398 C 179.4 419.12 180.52 428.08 192 430 C 180.52 431.92 179.4 440.88 178 462 C 176.6 440.88 175.48 431.92 164 430 C 175.48 428.08 176.6 419.12 178 398 Z" transform="rotate(1.15 178 430)" fill="#F7F0E6" fill-opacity="0.90"/>
    <path d="M 320 414 C 321 429.84 321.8 436.56 330 438 C 321.8 439.44 321 446.16 320 462 C 319 446.16 318.2 439.44 310 438 C 318.2 436.56 319 429.84 320 414 Z" transform="rotate(-1.15 320 438)" fill="#F7F0E6" fill-opacity="0.84"/>
    <path d="M 448 357 C 449.2 376.14 450.16 384.26 460 386 C 450.16 387.74 449.2 395.86 448 415 C 446.8 395.86 445.84 387.74 436 386 C 445.84 384.26 446.8 376.14 448 357 Z" transform="rotate(2.29 448 386)" fill="#F7F0E6" fill-opacity="0.88"/>
    <path d="M 462 434 C 463 449.84 463.8 456.56 472 458 C 463.8 459.44 463 466.16 462 482 C 461 466.16 460.2 459.44 452 458 C 460.2 456.56 461 449.84 462 434 Z" transform="rotate(-4.58 462 458)" fill="#F7F0E6" fill-opacity="0.78"/>
  </g>
</svg>
